<svg width="100" height="100" viewBox="0 0 100 100" fill="none" xmlns="http://www.w3.org/2000/svg">
<path d="M98.4375 50C98.4375 76.7514 76.7514 98.4375 50 98.4375C23.2486 98.4375 1.5625 76.7514 1.5625 50C1.5625 23.2486 23.2486 1.5625 50 1.5625C76.7514 1.5625 98.4375 23.2486 98.4375 50ZM44.3973 75.6473L80.3348 39.7098C81.5551 38.4895 81.5551 36.5107 80.3348 35.2904L75.9154 30.8711C74.6951 29.6506 72.7164 29.6506 71.4959 30.8711L42.1875 60.1793L28.5041 46.4959C27.2838 45.2756 25.3051 45.2756 24.0846 46.4959L19.6652 50.9152C18.4449 52.1355 18.4449 54.1143 19.6652 55.3346L39.9777 75.6471C41.1982 76.8676 43.1768 76.8676 44.3973 75.6473Z" fill="#15B4C8"/>
</svg>
