<svg width="429" height="142" viewBox="0 0 429 142" fill="none" xmlns="http://www.w3.org/2000/svg">
<rect y="71" width="100" height="100" rx="50" transform="rotate(-45 0 71)" fill="url(#paint0_linear_1_13)"/>
<path fill-rule="evenodd" clip-rule="evenodd" d="M60.7107 61V58.5C60.7107 56.5109 61.5009 54.6032 62.9074 53.1967C64.3139 51.7902 66.2216 51 68.2107 51H73.2107C75.1998 51 77.1075 51.7902 78.514 53.1967C79.9205 54.6032 80.7107 56.5109 80.7107 58.5V61H85.7107C87.0368 61 88.3085 61.5268 89.2462 62.4645C90.1839 63.4021 90.7107 64.6739 90.7107 66V74.925C84.3097 77.2968 77.5369 78.5075 70.7107 78.5C63.8844 78.5076 57.1116 77.2969 50.7107 74.925V66C50.7107 64.6739 51.2375 63.4021 52.1752 62.4645C53.1128 61.5268 54.3846 61 55.7107 61H60.7107ZM65.7107 58.5C65.7107 57.837 65.9741 57.2011 66.4429 56.7322C66.9118 56.2634 67.5477 56 68.2107 56H73.2107C73.8737 56 74.5096 56.2634 74.9785 56.7322C75.4473 57.2011 75.7107 57.837 75.7107 58.5V61H65.7107V58.5ZM68.2107 71C68.2107 70.337 68.4741 69.7011 68.9429 69.2322C69.4118 68.7634 70.0477 68.5 70.7107 68.5H70.7357C71.3987 68.5 72.0346 68.7634 72.5035 69.2322C72.9723 69.7011 73.2357 70.337 73.2357 71C73.2357 71.663 72.9723 72.2989 72.5035 72.7678C72.0346 73.2366 71.3987 73.5 70.7357 73.5H70.7107C70.0477 73.5 69.4118 73.2366 68.9429 72.7678C68.4741 72.2989 68.2107 71.663 68.2107 71Z" fill="white"/>
<path d="M50.7107 80.23V86C50.7107 87.3261 51.2375 88.5978 52.1752 89.5355C53.1128 90.4732 54.3846 91 55.7107 91H85.7107C87.0368 91 88.3085 90.4732 89.2462 89.5355C90.1839 88.5978 90.7107 87.3261 90.7107 86V80.23C84.2666 82.4019 77.511 83.5064 70.7107 83.5C63.7207 83.5 56.9932 82.35 50.7107 80.23Z" fill="white"/>
<path d="M153.494 61V48.4H159.218C160.586 48.4 161.792 48.664 162.836 49.192C163.88 49.708 164.696 50.434 165.284 51.37C165.872 52.306 166.166 53.416 166.166 54.7C166.166 55.972 165.872 57.082 165.284 58.03C164.696 58.966 163.88 59.698 162.836 60.226C161.792 60.742 160.586 61 159.218 61H153.494ZM156.41 58.606H159.074C159.914 58.606 160.64 58.45 161.252 58.138C161.876 57.814 162.356 57.358 162.692 56.77C163.04 56.182 163.214 55.492 163.214 54.7C163.214 53.896 163.04 53.206 162.692 52.63C162.356 52.042 161.876 51.592 161.252 51.28C160.64 50.956 159.914 50.794 159.074 50.794H156.41V58.606ZM168.167 61V51.316H170.849V54.052L170.471 53.26C170.759 52.576 171.221 52.06 171.857 51.712C172.493 51.352 173.267 51.172 174.179 51.172V53.764C174.059 53.752 173.951 53.746 173.855 53.746C173.759 53.734 173.657 53.728 173.549 53.728C172.781 53.728 172.157 53.95 171.677 54.394C171.209 54.826 170.975 55.504 170.975 56.428V61H168.167ZM176.805 61.144C176.325 61.144 175.911 60.982 175.563 60.658C175.227 60.322 175.059 59.896 175.059 59.38C175.059 58.864 175.227 58.45 175.563 58.138C175.911 57.814 176.325 57.652 176.805 57.652C177.297 57.652 177.711 57.814 178.047 58.138C178.383 58.45 178.551 58.864 178.551 59.38C178.551 59.896 178.383 60.322 178.047 60.658C177.711 60.982 177.297 61.144 176.805 61.144ZM188.072 61.216C187.22 61.216 186.434 61.06 185.714 60.748C185.006 60.424 184.424 59.968 183.968 59.38L185.588 57.436C185.936 57.892 186.302 58.24 186.686 58.48C187.07 58.708 187.484 58.822 187.928 58.822C189.116 58.822 189.71 58.126 189.71 56.734V50.74H185.282V48.4H192.608V56.572C192.608 58.132 192.224 59.296 191.456 60.064C190.688 60.832 189.56 61.216 188.072 61.216ZM195.29 61V51.316H198.098V61H195.29ZM196.694 49.966C196.178 49.966 195.758 49.816 195.434 49.516C195.11 49.216 194.948 48.844 194.948 48.4C194.948 47.956 195.11 47.584 195.434 47.284C195.758 46.984 196.178 46.834 196.694 46.834C197.21 46.834 197.63 46.978 197.954 47.266C198.278 47.542 198.44 47.902 198.44 48.346C198.44 48.814 198.278 49.204 197.954 49.516C197.642 49.816 197.222 49.966 196.694 49.966ZM206.59 51.172C207.358 51.172 208.042 51.328 208.642 51.64C209.254 51.94 209.734 52.408 210.082 53.044C210.43 53.668 210.604 54.472 210.604 55.456V61H207.796V55.888C207.796 55.108 207.622 54.532 207.274 54.16C206.938 53.788 206.458 53.602 205.834 53.602C205.39 53.602 204.988 53.698 204.628 53.89C204.28 54.07 204.004 54.352 203.8 54.736C203.608 55.12 203.512 55.612 203.512 56.212V61H200.704V51.316H203.386V53.998L202.882 53.188C203.23 52.54 203.728 52.042 204.376 51.694C205.024 51.346 205.762 51.172 206.59 51.172ZM217.774 64.636C216.862 64.636 215.98 64.522 215.128 64.294C214.288 64.078 213.586 63.748 213.022 63.304L214.138 61.288C214.546 61.624 215.062 61.888 215.686 62.08C216.322 62.284 216.946 62.386 217.558 62.386C218.554 62.386 219.274 62.164 219.718 61.72C220.174 61.276 220.402 60.616 220.402 59.74V58.282L220.582 55.852L220.546 53.404V51.316H223.21V59.38C223.21 61.18 222.742 62.506 221.806 63.358C220.87 64.21 219.526 64.636 217.774 64.636ZM217.342 60.532C216.442 60.532 215.626 60.34 214.894 59.956C214.174 59.56 213.592 59.014 213.148 58.318C212.716 57.61 212.5 56.788 212.5 55.852C212.5 54.904 212.716 54.082 213.148 53.386C213.592 52.678 214.174 52.132 214.894 51.748C215.626 51.364 216.442 51.172 217.342 51.172C218.158 51.172 218.878 51.34 219.502 51.676C220.126 52 220.612 52.51 220.96 53.206C221.308 53.89 221.482 54.772 221.482 55.852C221.482 56.92 221.308 57.802 220.96 58.498C220.612 59.182 220.126 59.692 219.502 60.028C218.878 60.364 218.158 60.532 217.342 60.532ZM217.9 58.228C218.392 58.228 218.83 58.132 219.214 57.94C219.598 57.736 219.898 57.454 220.114 57.094C220.33 56.734 220.438 56.32 220.438 55.852C220.438 55.372 220.33 54.958 220.114 54.61C219.898 54.25 219.598 53.974 219.214 53.782C218.83 53.578 218.392 53.476 217.9 53.476C217.408 53.476 216.97 53.578 216.586 53.782C216.202 53.974 215.896 54.25 215.668 54.61C215.452 54.958 215.344 55.372 215.344 55.852C215.344 56.32 215.452 56.734 215.668 57.094C215.896 57.454 216.202 57.736 216.586 57.94C216.97 58.132 217.408 58.228 217.9 58.228ZM229.909 61.144C229.105 61.144 228.385 60.988 227.749 60.676C227.125 60.364 226.639 59.89 226.291 59.254C225.943 58.606 225.769 57.784 225.769 56.788V51.316H228.577V56.374C228.577 57.178 228.745 57.772 229.081 58.156C229.429 58.528 229.915 58.714 230.539 58.714C230.971 58.714 231.355 58.624 231.691 58.444C232.027 58.252 232.291 57.964 232.483 57.58C232.675 57.184 232.771 56.692 232.771 56.104V51.316H235.579V61H232.915V58.336L233.401 59.11C233.077 59.782 232.597 60.292 231.961 60.64C231.337 60.976 230.653 61.144 229.909 61.144ZM238.181 61V51.316H240.989V61H238.181ZM239.585 49.966C239.069 49.966 238.649 49.816 238.325 49.516C238.001 49.216 237.839 48.844 237.839 48.4C237.839 47.956 238.001 47.584 238.325 47.284C238.649 46.984 239.069 46.834 239.585 46.834C240.101 46.834 240.521 46.978 240.845 47.266C241.169 47.542 241.331 47.902 241.331 48.346C241.331 48.814 241.169 49.204 240.845 49.516C240.533 49.816 240.113 49.966 239.585 49.966ZM151.525 91L159.175 73.5H164.975L172.625 91H166.525L160.875 76.3H163.175L157.525 91H151.525ZM156.075 87.95L157.575 83.7H165.625L167.125 87.95H156.075ZM180.62 91.25C179.053 91.25 177.661 90.95 176.445 90.35C175.228 89.75 174.27 88.9167 173.57 87.85C172.886 86.7667 172.545 85.5333 172.545 84.15C172.545 82.7667 172.886 81.5417 173.57 80.475C174.27 79.4083 175.228 78.575 176.445 77.975C177.661 77.375 179.053 77.075 180.62 77.075C182.286 77.075 183.711 77.4333 184.895 78.15C186.078 78.8667 186.895 79.8583 187.345 81.125L182.97 83.275C182.686 82.6417 182.336 82.1833 181.92 81.9C181.52 81.6167 181.078 81.475 180.595 81.475C180.178 81.475 179.786 81.575 179.42 81.775C179.07 81.975 178.786 82.275 178.57 82.675C178.37 83.0583 178.27 83.55 178.27 84.15C178.27 84.75 178.37 85.25 178.57 85.65C178.786 86.05 179.07 86.35 179.42 86.55C179.786 86.75 180.178 86.85 180.595 86.85C181.078 86.85 181.52 86.7083 181.92 86.425C182.336 86.1417 182.686 85.6833 182.97 85.05L187.345 87.2C186.895 88.4667 186.078 89.4583 184.895 90.175C183.711 90.8917 182.286 91.25 180.62 91.25ZM194.35 91.25C193.267 91.25 192.284 91.0333 191.4 90.6C190.534 90.15 189.85 89.4583 189.35 88.525C188.85 87.575 188.6 86.3583 188.6 84.875V77.325H194.25V83.9C194.25 84.8667 194.409 85.5417 194.725 85.925C195.042 86.3083 195.475 86.5 196.025 86.5C196.359 86.5 196.667 86.4167 196.95 86.25C197.25 86.0667 197.492 85.775 197.675 85.375C197.859 84.9583 197.95 84.4167 197.95 83.75V77.325H203.6V91H198.225V87.05L199.3 88.125C198.817 89.1917 198.125 89.9833 197.225 90.5C196.342 91 195.384 91.25 194.35 91.25ZM215.231 91.25C214.048 91.25 213.065 91 212.281 90.5C211.515 89.9833 210.948 89.2083 210.581 88.175C210.215 87.125 210.031 85.7917 210.031 84.175C210.031 82.525 210.198 81.1833 210.531 80.15C210.881 79.1 211.44 78.325 212.206 77.825C212.973 77.325 213.981 77.075 215.231 77.075C216.431 77.075 217.531 77.3667 218.531 77.95C219.531 78.5167 220.331 79.3333 220.931 80.4C221.531 81.45 221.831 82.7083 221.831 84.175C221.831 85.6417 221.531 86.9083 220.931 87.975C220.331 89.025 219.531 89.8333 218.531 90.4C217.531 90.9667 216.431 91.25 215.231 91.25ZM206.106 95.85V77.325H211.481V79.175L211.506 84.175L211.756 89.175V95.85H206.106ZM213.881 86.85C214.298 86.85 214.673 86.75 215.006 86.55C215.34 86.35 215.606 86.05 215.806 85.65C216.006 85.25 216.106 84.7583 216.106 84.175C216.106 83.575 216.006 83.075 215.806 82.675C215.606 82.275 215.34 81.975 215.006 81.775C214.673 81.575 214.298 81.475 213.881 81.475C213.465 81.475 213.09 81.575 212.756 81.775C212.423 81.975 212.156 82.275 211.956 82.675C211.756 83.075 211.656 83.575 211.656 84.175C211.656 84.7583 211.756 85.25 211.956 85.65C212.156 86.05 212.423 86.35 212.756 86.55C213.09 86.75 213.465 86.85 213.881 86.85ZM229.311 91.25C228.228 91.25 227.245 91.0333 226.361 90.6C225.495 90.15 224.811 89.4583 224.311 88.525C223.811 87.575 223.561 86.3583 223.561 84.875V77.325H229.211V83.9C229.211 84.8667 229.37 85.5417 229.686 85.925C230.003 86.3083 230.436 86.5 230.986 86.5C231.32 86.5 231.628 86.4167 231.911 86.25C232.211 86.0667 232.453 85.775 232.636 85.375C232.82 84.9583 232.911 84.4167 232.911 83.75V77.325H238.561V91H233.186V87.05L234.261 88.125C233.778 89.1917 233.086 89.9833 232.186 90.5C231.303 91 230.345 91.25 229.311 91.25ZM250.567 77.075C251.617 77.075 252.567 77.2917 253.417 77.725C254.267 78.1417 254.934 78.8 255.417 79.7C255.917 80.6 256.167 81.7667 256.167 83.2V91H250.517V84.175C250.517 83.325 250.367 82.725 250.067 82.375C249.767 82.0083 249.359 81.825 248.842 81.825C248.459 81.825 248.101 81.9167 247.767 82.1C247.451 82.2667 247.192 82.55 246.992 82.95C246.809 83.35 246.717 83.8917 246.717 84.575V91H241.067V77.325H246.442V81.325L245.367 80.175C245.901 79.1417 246.617 78.3667 247.517 77.85C248.434 77.3333 249.451 77.075 250.567 77.075ZM265.221 91.25C263.338 91.25 261.871 90.8 260.821 89.9C259.771 88.9833 259.246 87.5833 259.246 85.7V74.25H264.896V85.65C264.896 86.0667 265.004 86.3917 265.221 86.625C265.454 86.8583 265.738 86.975 266.071 86.975C266.554 86.975 266.979 86.85 267.346 86.6L268.696 90.525C268.263 90.775 267.738 90.9583 267.121 91.075C266.521 91.1917 265.888 91.25 265.221 91.25ZM257.371 82.2V78.075H267.696V82.2H257.371ZM275.82 91.25C274.737 91.25 273.753 91.0333 272.87 90.6C272.003 90.15 271.32 89.4583 270.82 88.525C270.32 87.575 270.07 86.3583 270.07 84.875V77.325H275.72V83.9C275.72 84.8667 275.878 85.5417 276.195 85.925C276.512 86.3083 276.945 86.5 277.495 86.5C277.828 86.5 278.137 86.4167 278.42 86.25C278.72 86.0667 278.962 85.775 279.145 85.375C279.328 84.9583 279.42 84.4167 279.42 83.75V77.325H285.07V91H279.695V87.05L280.77 88.125C280.287 89.1917 279.595 89.9833 278.695 90.5C277.812 91 276.853 91.25 275.82 91.25ZM287.576 91V77.325H292.951V81.45L292.076 80.275C292.493 79.2083 293.16 78.4083 294.076 77.875C294.993 77.3417 296.093 77.075 297.376 77.075V82.075C297.126 82.0417 296.901 82.0167 296.701 82C296.518 81.9833 296.326 81.975 296.126 81.975C295.276 81.975 294.576 82.2 294.026 82.65C293.493 83.0833 293.226 83.8417 293.226 84.925V91H287.576ZM306.496 91V88.575L306.096 87.925V83.325C306.096 82.6583 305.887 82.15 305.471 81.8C305.071 81.45 304.412 81.275 303.496 81.275C302.879 81.275 302.254 81.375 301.621 81.575C300.987 81.7583 300.446 82.0167 299.996 82.35L298.196 78.625C298.996 78.125 299.954 77.7417 301.071 77.475C302.187 77.2083 303.279 77.075 304.346 77.075C306.696 77.075 308.512 77.6 309.796 78.65C311.096 79.7 311.746 81.3667 311.746 83.65V91H306.496ZM302.621 91.25C301.504 91.25 300.571 91.0583 299.821 90.675C299.071 90.2917 298.504 89.7833 298.121 89.15C297.737 88.5 297.546 87.7833 297.546 87C297.546 86.1167 297.771 85.3667 298.221 84.75C298.671 84.1333 299.354 83.6667 300.271 83.35C301.204 83.0333 302.379 82.875 303.796 82.875H306.646V85.6H304.696C304.096 85.6 303.654 85.7 303.371 85.9C303.104 86.0833 302.971 86.3667 302.971 86.75C302.971 87.0667 303.087 87.3333 303.321 87.55C303.571 87.75 303.904 87.85 304.321 87.85C304.704 87.85 305.054 87.75 305.371 87.55C305.704 87.3333 305.946 87 306.096 86.55L306.821 88.225C306.604 89.2417 306.146 90 305.446 90.5C304.746 91 303.804 91.25 302.621 91.25ZM330.908 91.4C329.508 91.4 328.208 91.1833 327.008 90.75C325.824 90.3 324.791 89.6667 323.908 88.85C323.041 88.0333 322.366 87.0667 321.883 85.95C321.399 84.8333 321.158 83.6 321.158 82.25C321.158 80.9 321.399 79.6667 321.883 78.55C322.366 77.4333 323.041 76.4667 323.908 75.65C324.791 74.8333 325.824 74.2083 327.008 73.775C328.208 73.325 329.508 73.1 330.908 73.1C332.624 73.1 334.141 73.4 335.458 74C336.791 74.6 337.891 75.4667 338.758 76.6L335.033 79.925C334.516 79.275 333.941 78.775 333.308 78.425C332.691 78.0583 331.991 77.875 331.208 77.875C330.591 77.875 330.033 77.975 329.533 78.175C329.033 78.375 328.599 78.6667 328.233 79.05C327.883 79.4333 327.608 79.9 327.408 80.45C327.208 80.9833 327.108 81.5833 327.108 82.25C327.108 82.9167 327.208 83.525 327.408 84.075C327.608 84.6083 327.883 85.0667 328.233 85.45C328.599 85.8333 329.033 86.125 329.533 86.325C330.033 86.525 330.591 86.625 331.208 86.625C331.991 86.625 332.691 86.45 333.308 86.1C333.941 85.7333 334.516 85.225 335.033 84.575L338.758 87.9C337.891 89.0167 336.791 89.8833 335.458 90.5C334.141 91.1 332.624 91.4 330.908 91.4ZM349.786 77.075C350.836 77.075 351.786 77.2917 352.636 77.725C353.486 78.1417 354.153 78.8 354.636 79.7C355.136 80.6 355.386 81.7667 355.386 83.2V91H349.736V84.175C349.736 83.325 349.586 82.725 349.286 82.375C348.986 82.0083 348.578 81.825 348.061 81.825C347.678 81.825 347.319 81.9167 346.986 82.1C346.669 82.2667 346.411 82.55 346.211 82.95C346.028 83.35 345.936 83.8917 345.936 84.575V91H340.286V72.45H345.936V81.325L344.586 80.175C345.119 79.1417 345.836 78.3667 346.736 77.85C347.653 77.3333 348.669 77.075 349.786 77.075ZM357.84 91V77.325H363.49V91H357.84ZM360.665 76.225C359.632 76.225 358.807 75.95 358.19 75.4C357.573 74.85 357.265 74.1667 357.265 73.35C357.265 72.5333 357.573 71.85 358.19 71.3C358.807 70.75 359.632 70.475 360.665 70.475C361.698 70.475 362.523 70.7333 363.14 71.25C363.757 71.7667 364.065 72.4333 364.065 73.25C364.065 74.1167 363.757 74.8333 363.14 75.4C362.523 75.95 361.698 76.225 360.665 76.225ZM375.494 77.075C376.544 77.075 377.494 77.2917 378.344 77.725C379.194 78.1417 379.861 78.8 380.344 79.7C380.844 80.6 381.094 81.7667 381.094 83.2V91H375.444V84.175C375.444 83.325 375.294 82.725 374.994 82.375C374.694 82.0083 374.286 81.825 373.769 81.825C373.386 81.825 373.027 81.9167 372.694 82.1C372.377 82.2667 372.119 82.55 371.919 82.95C371.736 83.35 371.644 83.8917 371.644 84.575V91H365.994V77.325H371.369V81.325L370.294 80.175C370.827 79.1417 371.544 78.3667 372.444 77.85C373.361 77.3333 374.377 77.075 375.494 77.075ZM391.342 91.25C389.675 91.25 388.217 90.9417 386.967 90.325C385.734 89.7083 384.775 88.8667 384.092 87.8C383.409 86.7167 383.067 85.5 383.067 84.15C383.067 82.7667 383.4 81.5417 384.067 80.475C384.75 79.4083 385.675 78.575 386.842 77.975C388.025 77.375 389.35 77.075 390.817 77.075C392.167 77.075 393.409 77.3417 394.542 77.875C395.692 78.4083 396.609 79.2 397.292 80.25C397.992 81.3 398.342 82.6 398.342 84.15C398.342 84.35 398.334 84.575 398.317 84.825C398.3 85.0583 398.284 85.275 398.267 85.475H387.742V82.75H395.267L393.142 83.475C393.142 82.9417 393.042 82.4917 392.842 82.125C392.659 81.7417 392.4 81.45 392.067 81.25C391.734 81.0333 391.334 80.925 390.867 80.925C390.4 80.925 389.992 81.0333 389.642 81.25C389.309 81.45 389.05 81.7417 388.867 82.125C388.684 82.4917 388.592 82.9417 388.592 83.475V84.325C388.592 84.9083 388.709 85.4083 388.942 85.825C389.175 86.2417 389.509 86.5583 389.942 86.775C390.375 86.975 390.9 87.075 391.517 87.075C392.15 87.075 392.667 86.9917 393.067 86.825C393.484 86.6583 393.917 86.4083 394.367 86.075L397.317 89.05C396.65 89.7667 395.825 90.3167 394.842 90.7C393.875 91.0667 392.709 91.25 391.342 91.25ZM405.475 91.25C404.308 91.25 403.158 91.125 402.025 90.875C400.892 90.625 399.975 90.3 399.275 89.9L400.825 86.175C401.475 86.5583 402.225 86.8583 403.075 87.075C403.942 87.2917 404.783 87.4 405.6 87.4C406.283 87.4 406.742 87.3417 406.975 87.225C407.225 87.1083 407.35 86.95 407.35 86.75C407.35 86.55 407.208 86.4083 406.925 86.325C406.642 86.225 406.267 86.15 405.8 86.1C405.333 86.05 404.817 85.9917 404.25 85.925C403.7 85.8417 403.142 85.725 402.575 85.575C402.008 85.425 401.492 85.2 401.025 84.9C400.558 84.6 400.183 84.2 399.9 83.7C399.617 83.1833 399.475 82.5333 399.475 81.75C399.475 80.8833 399.733 80.1 400.25 79.4C400.783 78.7 401.567 78.1417 402.6 77.725C403.65 77.2917 404.942 77.075 406.475 77.075C407.475 77.075 408.475 77.1667 409.475 77.35C410.475 77.5333 411.333 77.8167 412.05 78.2L410.5 81.925C409.8 81.5417 409.108 81.2833 408.425 81.15C407.758 81 407.133 80.925 406.55 80.925C405.833 80.925 405.342 80.9917 405.075 81.125C404.825 81.2583 404.7 81.4083 404.7 81.575C404.7 81.775 404.842 81.925 405.125 82.025C405.408 82.125 405.783 82.2 406.25 82.25C406.717 82.3 407.225 82.3667 407.775 82.45C408.342 82.5167 408.9 82.6333 409.45 82.8C410.017 82.95 410.533 83.175 411 83.475C411.467 83.775 411.842 84.1833 412.125 84.7C412.408 85.2 412.55 85.8417 412.55 86.625C412.55 87.4417 412.292 88.2083 411.775 88.925C411.258 89.625 410.475 90.1917 409.425 90.625C408.375 91.0417 407.058 91.25 405.475 91.25ZM422.536 91V88.575L422.136 87.925V83.325C422.136 82.6583 421.927 82.15 421.511 81.8C421.111 81.45 420.452 81.275 419.536 81.275C418.919 81.275 418.294 81.375 417.661 81.575C417.027 81.7583 416.486 82.0167 416.036 82.35L414.236 78.625C415.036 78.125 415.994 77.7417 417.111 77.475C418.227 77.2083 419.319 77.075 420.386 77.075C422.736 77.075 424.552 77.6 425.836 78.65C427.136 79.7 427.786 81.3667 427.786 83.65V91H422.536ZM418.661 91.25C417.544 91.25 416.611 91.0583 415.861 90.675C415.111 90.2917 414.544 89.7833 414.161 89.15C413.777 88.5 413.586 87.7833 413.586 87C413.586 86.1167 413.811 85.3667 414.261 84.75C414.711 84.1333 415.394 83.6667 416.311 83.35C417.244 83.0333 418.419 82.875 419.836 82.875H422.686V85.6H420.736C420.136 85.6 419.694 85.7 419.411 85.9C419.144 86.0833 419.011 86.3667 419.011 86.75C419.011 87.0667 419.127 87.3333 419.361 87.55C419.611 87.75 419.944 87.85 420.361 87.85C420.744 87.85 421.094 87.75 421.411 87.55C421.744 87.3333 421.986 87 422.136 86.55L422.861 88.225C422.644 89.2417 422.186 90 421.486 90.5C420.786 91 419.844 91.25 418.661 91.25Z" fill="#2B4296"/>
<defs>
<linearGradient id="paint0_linear_1_13" x1="50" y1="71" x2="50" y2="171" gradientUnits="userSpaceOnUse">
<stop offset="0.271" stop-color="#33FCF0"/>
<stop offset="0.901" stop-color="#1BADFF"/>
</linearGradient>
</defs>
</svg>
