<svg width="41" height="40" viewBox="0 0 41 40" fill="none" xmlns="http://www.w3.org/2000/svg">
<path d="M32.9685 7.58594C29.6951 4.30469 25.3357 2.5 20.7029 2.5C11.1404 2.5 3.35913 10.2812 3.35913 19.8438C3.35913 22.8984 4.15601 25.8828 5.67163 28.5156L3.21069 37.5L12.406 35.0859C14.9373 36.4688 17.7888 37.1953 20.6951 37.1953H20.7029C30.2576 37.1953 38.2107 29.4141 38.2107 19.8516C38.2107 15.2188 36.2419 10.8672 32.9685 7.58594ZM20.7029 34.2734C18.1091 34.2734 15.5701 33.5781 13.3591 32.2656L12.8357 31.9531L7.38257 33.3828L8.83569 28.0625L8.49194 27.5156C7.04663 25.2188 6.28882 22.5703 6.28882 19.8438C6.28882 11.8984 12.7576 5.42969 20.7107 5.42969C24.5623 5.42969 28.1794 6.92969 30.8982 9.65625C33.6169 12.3828 35.2888 16 35.281 19.8516C35.281 27.8047 28.6482 34.2734 20.7029 34.2734ZM28.6091 23.4766C28.1794 23.2578 26.0466 22.2109 25.6482 22.0703C25.2498 21.9219 24.9607 21.8516 24.6716 22.2891C24.3826 22.7266 23.5544 23.6953 23.2966 23.9922C23.0466 24.2812 22.7888 24.3203 22.3591 24.1016C19.8123 22.8281 18.1404 21.8281 16.4607 18.9453C16.0154 18.1797 16.906 18.2344 17.7341 16.5781C17.8748 16.2891 17.8044 16.0391 17.6951 15.8203C17.5857 15.6016 16.7185 13.4688 16.3591 12.6016C16.0076 11.7578 15.6482 11.875 15.3826 11.8594C15.1326 11.8438 14.8435 11.8438 14.5544 11.8438C14.2654 11.8438 13.7966 11.9531 13.3982 12.3828C12.9998 12.8203 11.8826 13.8672 11.8826 16C11.8826 18.1328 13.4373 20.1953 13.6482 20.4844C13.8669 20.7734 16.7029 25.1484 21.0544 27.0312C23.8044 28.2188 24.8826 28.3203 26.2576 28.1172C27.0935 27.9922 28.8201 27.0703 29.1794 26.0547C29.5388 25.0391 29.5388 24.1719 29.4294 23.9922C29.3279 23.7969 29.0388 23.6875 28.6091 23.4766Z" fill="white"/>
</svg>
